<mxfile host="app.diagrams.net" modified="2021-06-07T07:18:30.880Z" agent="5.0 (Windows NT 10.0; Win64; x64) AppleWebKit/537.36 (KHTML, like Gecko) Chrome/91.0.4472.77 Safari/537.36" etag="iWGb9CvQ43BbAcmukDV2" version="14.7.6" type="github">
  <diagram id="4WeLWoLbl9c9doZnRNi1" name="Page-1">
    <mxGraphModel dx="1422" dy="826" grid="1" gridSize="10" guides="1" tooltips="1" connect="1" arrows="1" fold="1" page="1" pageScale="1" pageWidth="1100" pageHeight="850" math="0" shadow="0">
      <root>
        <mxCell id="0" />
        <mxCell id="1" parent="0" />
        <mxCell id="g26gJI3OPP5dfYRT891p-1" value="" style="shape=umlLifeline;participant=umlEntity;perimeter=lifelinePerimeter;whiteSpace=wrap;html=1;container=1;collapsible=0;recursiveResize=0;verticalAlign=top;spacingTop=36;outlineConnect=0;" vertex="1" parent="1">
          <mxGeometry x="280" y="20" width="40" height="300" as="geometry" />
        </mxCell>
        <mxCell id="g26gJI3OPP5dfYRT891p-2" value="投放端" style="shape=umlLifeline;perimeter=lifelinePerimeter;whiteSpace=wrap;html=1;container=1;collapsible=0;recursiveResize=0;outlineConnect=0;" vertex="1" parent="1">
          <mxGeometry x="250" y="60" width="100" height="470" as="geometry" />
        </mxCell>
        <mxCell id="g26gJI3OPP5dfYRT891p-3" value="" style="html=1;points=[];perimeter=orthogonalPerimeter;" vertex="1" parent="g26gJI3OPP5dfYRT891p-2">
          <mxGeometry x="45" y="150" width="10" height="80" as="geometry" />
        </mxCell>
        <mxCell id="g26gJI3OPP5dfYRT891p-4" value="" style="html=1;points=[];perimeter=orthogonalPerimeter;" vertex="1" parent="g26gJI3OPP5dfYRT891p-2">
          <mxGeometry x="45" y="270" width="10" height="80" as="geometry" />
        </mxCell>
        <mxCell id="g26gJI3OPP5dfYRT891p-5" value="" style="shape=umlLifeline;participant=umlEntity;perimeter=lifelinePerimeter;whiteSpace=wrap;html=1;container=1;collapsible=0;recursiveResize=0;verticalAlign=top;spacingTop=36;outlineConnect=0;" vertex="1" parent="1">
          <mxGeometry x="480" y="20" width="40" height="300" as="geometry" />
        </mxCell>
        <mxCell id="g26gJI3OPP5dfYRT891p-6" value="后端serving" style="shape=umlLifeline;perimeter=lifelinePerimeter;whiteSpace=wrap;html=1;container=1;collapsible=0;recursiveResize=0;outlineConnect=0;" vertex="1" parent="1">
          <mxGeometry x="450" y="60" width="100" height="410" as="geometry" />
        </mxCell>
        <mxCell id="g26gJI3OPP5dfYRT891p-7" value="" style="html=1;points=[];perimeter=orthogonalPerimeter;" vertex="1" parent="g26gJI3OPP5dfYRT891p-6">
          <mxGeometry x="45" y="50" width="10" height="80" as="geometry" />
        </mxCell>
        <mxCell id="g26gJI3OPP5dfYRT891p-8" value="" style="shape=umlLifeline;participant=umlEntity;perimeter=lifelinePerimeter;whiteSpace=wrap;html=1;container=1;collapsible=0;recursiveResize=0;verticalAlign=top;spacingTop=36;outlineConnect=0;" vertex="1" parent="1">
          <mxGeometry x="80" y="20" width="40" height="300" as="geometry" />
        </mxCell>
        <mxCell id="g26gJI3OPP5dfYRT891p-9" value="管理端" style="shape=umlLifeline;perimeter=lifelinePerimeter;whiteSpace=wrap;html=1;container=1;collapsible=0;recursiveResize=0;outlineConnect=0;" vertex="1" parent="1">
          <mxGeometry x="50" y="60" width="100" height="300" as="geometry" />
        </mxCell>
        <mxCell id="g26gJI3OPP5dfYRT891p-10" value="" style="html=1;points=[];perimeter=orthogonalPerimeter;" vertex="1" parent="g26gJI3OPP5dfYRT891p-9">
          <mxGeometry x="45" y="50" width="10" height="80" as="geometry" />
        </mxCell>
        <mxCell id="g26gJI3OPP5dfYRT891p-11" style="edgeStyle=orthogonalEdgeStyle;rounded=0;orthogonalLoop=1;jettySize=auto;html=1;entryX=0.1;entryY=0.05;entryDx=0;entryDy=0;entryPerimeter=0;" edge="1" parent="1" source="g26gJI3OPP5dfYRT891p-10" target="g26gJI3OPP5dfYRT891p-7">
          <mxGeometry relative="1" as="geometry">
            <Array as="points">
              <mxPoint x="210" y="114" />
              <mxPoint x="210" y="114" />
            </Array>
          </mxGeometry>
        </mxCell>
        <mxCell id="g26gJI3OPP5dfYRT891p-12" value="配置库存支持+预估周期" style="edgeLabel;html=1;align=center;verticalAlign=middle;resizable=0;points=[];" vertex="1" connectable="0" parent="g26gJI3OPP5dfYRT891p-11">
          <mxGeometry x="-0.422" y="-1" relative="1" as="geometry">
            <mxPoint x="-28" y="-5" as="offset" />
          </mxGeometry>
        </mxCell>
        <mxCell id="g26gJI3OPP5dfYRT891p-13" style="edgeStyle=orthogonalEdgeStyle;rounded=0;orthogonalLoop=1;jettySize=auto;html=1;entryX=1.3;entryY=0.5;entryDx=0;entryDy=0;entryPerimeter=0;dashed=1;" edge="1" parent="1" source="g26gJI3OPP5dfYRT891p-7" target="g26gJI3OPP5dfYRT891p-10">
          <mxGeometry relative="1" as="geometry" />
        </mxCell>
        <mxCell id="g26gJI3OPP5dfYRT891p-14" value="同步配置结果" style="edgeLabel;html=1;align=center;verticalAlign=middle;resizable=0;points=[];" vertex="1" connectable="0" parent="g26gJI3OPP5dfYRT891p-13">
          <mxGeometry x="-0.416" relative="1" as="geometry">
            <mxPoint as="offset" />
          </mxGeometry>
        </mxCell>
        <mxCell id="g26gJI3OPP5dfYRT891p-15" style="edgeStyle=orthogonalEdgeStyle;rounded=0;orthogonalLoop=1;jettySize=auto;html=1;dashed=1;" edge="1" parent="1" source="g26gJI3OPP5dfYRT891p-17" target="g26gJI3OPP5dfYRT891p-3">
          <mxGeometry relative="1" as="geometry" />
        </mxCell>
        <mxCell id="g26gJI3OPP5dfYRT891p-16" value="返回列表+库存支持与周期大小" style="edgeLabel;html=1;align=center;verticalAlign=middle;resizable=0;points=[];" vertex="1" connectable="0" parent="g26gJI3OPP5dfYRT891p-15">
          <mxGeometry x="-0.2316" y="2" relative="1" as="geometry">
            <mxPoint x="-22" y="-2" as="offset" />
          </mxGeometry>
        </mxCell>
        <mxCell id="g26gJI3OPP5dfYRT891p-17" value="" style="html=1;points=[];perimeter=orthogonalPerimeter;" vertex="1" parent="1">
          <mxGeometry x="495" y="210" width="10" height="80" as="geometry" />
        </mxCell>
        <mxCell id="g26gJI3OPP5dfYRT891p-18" style="edgeStyle=orthogonalEdgeStyle;rounded=0;orthogonalLoop=1;jettySize=auto;html=1;" edge="1" parent="1" source="g26gJI3OPP5dfYRT891p-3" target="g26gJI3OPP5dfYRT891p-6">
          <mxGeometry relative="1" as="geometry">
            <Array as="points">
              <mxPoint x="340" y="210" />
              <mxPoint x="340" y="210" />
            </Array>
          </mxGeometry>
        </mxCell>
        <mxCell id="g26gJI3OPP5dfYRT891p-19" value="查询广告位列表" style="edgeLabel;html=1;align=center;verticalAlign=middle;resizable=0;points=[];" vertex="1" connectable="0" parent="g26gJI3OPP5dfYRT891p-18">
          <mxGeometry x="-0.1877" y="-2" relative="1" as="geometry">
            <mxPoint as="offset" />
          </mxGeometry>
        </mxCell>
        <mxCell id="g26gJI3OPP5dfYRT891p-20" value="" style="shape=umlLifeline;participant=umlEntity;perimeter=lifelinePerimeter;whiteSpace=wrap;html=1;container=1;collapsible=0;recursiveResize=0;verticalAlign=top;spacingTop=36;outlineConnect=0;" vertex="1" parent="1">
          <mxGeometry x="680" y="20" width="40" height="300" as="geometry" />
        </mxCell>
        <mxCell id="g26gJI3OPP5dfYRT891p-21" value="算法库存预估" style="shape=umlLifeline;perimeter=lifelinePerimeter;whiteSpace=wrap;html=1;container=1;collapsible=0;recursiveResize=0;outlineConnect=0;" vertex="1" parent="1">
          <mxGeometry x="650" y="60" width="100" height="410" as="geometry" />
        </mxCell>
        <mxCell id="g26gJI3OPP5dfYRT891p-22" value="" style="html=1;points=[];perimeter=orthogonalPerimeter;" vertex="1" parent="g26gJI3OPP5dfYRT891p-21">
          <mxGeometry x="45" y="270" width="10" height="110" as="geometry" />
        </mxCell>
        <mxCell id="g26gJI3OPP5dfYRT891p-23" style="edgeStyle=orthogonalEdgeStyle;rounded=0;orthogonalLoop=1;jettySize=auto;html=1;" edge="1" parent="1" source="g26gJI3OPP5dfYRT891p-29" target="g26gJI3OPP5dfYRT891p-6">
          <mxGeometry relative="1" as="geometry">
            <mxPoint x="630" y="380" as="targetPoint" />
            <Array as="points">
              <mxPoint x="580" y="340" />
              <mxPoint x="580" y="377" />
            </Array>
          </mxGeometry>
        </mxCell>
        <mxCell id="g26gJI3OPP5dfYRT891p-24" value="判断支持+周期" style="edgeLabel;html=1;align=center;verticalAlign=middle;resizable=0;points=[];" vertex="1" connectable="0" parent="g26gJI3OPP5dfYRT891p-23">
          <mxGeometry x="-0.4754" y="-3" relative="1" as="geometry">
            <mxPoint as="offset" />
          </mxGeometry>
        </mxCell>
        <mxCell id="g26gJI3OPP5dfYRT891p-25" style="edgeStyle=orthogonalEdgeStyle;rounded=0;orthogonalLoop=1;jettySize=auto;html=1;entryX=0.5;entryY=0.458;entryDx=0;entryDy=0;entryPerimeter=0;" edge="1" parent="1" source="g26gJI3OPP5dfYRT891p-29" target="g26gJI3OPP5dfYRT891p-22">
          <mxGeometry relative="1" as="geometry" />
        </mxCell>
        <mxCell id="g26gJI3OPP5dfYRT891p-26" value="库存查询" style="edgeLabel;html=1;align=center;verticalAlign=middle;resizable=0;points=[];" vertex="1" connectable="0" parent="g26gJI3OPP5dfYRT891p-25">
          <mxGeometry x="0.2205" y="-1" relative="1" as="geometry">
            <mxPoint as="offset" />
          </mxGeometry>
        </mxCell>
        <mxCell id="g26gJI3OPP5dfYRT891p-27" style="edgeStyle=orthogonalEdgeStyle;rounded=0;orthogonalLoop=1;jettySize=auto;html=1;entryX=1.2;entryY=0.45;entryDx=0;entryDy=0;entryPerimeter=0;dashed=1;" edge="1" parent="1" source="g26gJI3OPP5dfYRT891p-29" target="g26gJI3OPP5dfYRT891p-34">
          <mxGeometry relative="1" as="geometry">
            <Array as="points">
              <mxPoint x="440" y="438" />
              <mxPoint x="440" y="438" />
            </Array>
          </mxGeometry>
        </mxCell>
        <mxCell id="g26gJI3OPP5dfYRT891p-28" value="反馈库存查询与锁定结果" style="edgeLabel;html=1;align=center;verticalAlign=middle;resizable=0;points=[];" vertex="1" connectable="0" parent="g26gJI3OPP5dfYRT891p-27">
          <mxGeometry x="-0.3191" y="-1" relative="1" as="geometry">
            <mxPoint x="-21" as="offset" />
          </mxGeometry>
        </mxCell>
        <mxCell id="g26gJI3OPP5dfYRT891p-29" value="" style="html=1;points=[];perimeter=orthogonalPerimeter;" vertex="1" parent="1">
          <mxGeometry x="495" y="330" width="10" height="110" as="geometry" />
        </mxCell>
        <mxCell id="g26gJI3OPP5dfYRT891p-30" style="edgeStyle=orthogonalEdgeStyle;rounded=0;orthogonalLoop=1;jettySize=auto;html=1;entryX=-0.4;entryY=0.027;entryDx=0;entryDy=0;entryPerimeter=0;" edge="1" parent="1" source="g26gJI3OPP5dfYRT891p-4" target="g26gJI3OPP5dfYRT891p-29">
          <mxGeometry relative="1" as="geometry">
            <mxPoint x="410" y="400" as="targetPoint" />
            <Array as="points">
              <mxPoint x="360" y="333" />
              <mxPoint x="360" y="333" />
            </Array>
          </mxGeometry>
        </mxCell>
        <mxCell id="g26gJI3OPP5dfYRT891p-31" value="库存预估与锁定" style="edgeLabel;html=1;align=center;verticalAlign=middle;resizable=0;points=[];" vertex="1" connectable="0" parent="g26gJI3OPP5dfYRT891p-30">
          <mxGeometry x="0.2316" y="-1" relative="1" as="geometry">
            <mxPoint x="-23" y="3" as="offset" />
          </mxGeometry>
        </mxCell>
        <mxCell id="g26gJI3OPP5dfYRT891p-32" style="edgeStyle=orthogonalEdgeStyle;rounded=0;orthogonalLoop=1;jettySize=auto;html=1;entryX=1.4;entryY=0.873;entryDx=0;entryDy=0;entryPerimeter=0;dashed=1;" edge="1" parent="1" source="g26gJI3OPP5dfYRT891p-22" target="g26gJI3OPP5dfYRT891p-29">
          <mxGeometry relative="1" as="geometry">
            <Array as="points">
              <mxPoint x="640" y="426" />
              <mxPoint x="640" y="426" />
            </Array>
          </mxGeometry>
        </mxCell>
        <mxCell id="g26gJI3OPP5dfYRT891p-33" value="反馈库存结果" style="edgeLabel;html=1;align=center;verticalAlign=middle;resizable=0;points=[];" vertex="1" connectable="0" parent="g26gJI3OPP5dfYRT891p-32">
          <mxGeometry x="-0.1935" y="4" relative="1" as="geometry">
            <mxPoint as="offset" />
          </mxGeometry>
        </mxCell>
        <mxCell id="g26gJI3OPP5dfYRT891p-34" value="" style="html=1;points=[];perimeter=orthogonalPerimeter;" vertex="1" parent="1">
          <mxGeometry x="295" y="420" width="10" height="40" as="geometry" />
        </mxCell>
      </root>
    </mxGraphModel>
  </diagram>
</mxfile>
